<?xml version="1.0" encoding="UTF-8" standalone="no"?>
<svg
   xmlns:dc="http://purl.org/dc/elements/1.1/"
   xmlns:cc="http://creativecommons.org/ns#"
   xmlns:rdf="http://www.w3.org/1999/02/22-rdf-syntax-ns#"
   xmlns:svg="http://www.w3.org/2000/svg"
   xmlns="http://www.w3.org/2000/svg"
   xmlns:sodipodi="http://sodipodi.sourceforge.net/DTD/sodipodi-0.dtd"
   xmlns:inkscape="http://www.inkscape.org/namespaces/inkscape"
   version="1.0"
   width="890.000000pt"
   height="219.000000pt"
   viewBox="0 0 890.000000 219.000000"
   preserveAspectRatio="xMidYMid meet"
   id="svg3811"
   sodipodi:docname="logo2.svg"
   inkscape:version="0.92.2 5c3e80d, 2017-08-06">
  <defs
     id="defs3815" />
  <sodipodi:namedview
     pagecolor="#ffffff"
     bordercolor="#666666"
     borderopacity="1"
     objecttolerance="10"
     gridtolerance="10"
     guidetolerance="10"
     inkscape:pageopacity="0"
     inkscape:pageshadow="2"
     inkscape:window-width="1307"
     inkscape:window-height="828"
     id="namedview3813"
     showgrid="false"
     inkscape:zoom="1.5337079"
     inkscape:cx="713.38979"
     inkscape:cy="186.58434"
     inkscape:window-x="1369"
     inkscape:window-y="207"
     inkscape:window-maximized="0"
     inkscape:current-layer="svg3811" />
  <metadata
     id="metadata3777">
Created by potrace 1.15, written by Peter Selinger 2001-2017
<rdf:RDF>
  <cc:Work
     rdf:about="">
    <dc:format>image/svg+xml</dc:format>
    <dc:type
       rdf:resource="http://purl.org/dc/dcmitype/StillImage" />
  </cc:Work>
</rdf:RDF>
</metadata>
  <g
     transform="translate(0.000000,219.000000) scale(0.100000,-0.100000)"
     fill="#000000"
     stroke="none"
     id="g3809">
    <path
       d="M2663 2149 c-34 -10 -84 -35 -112 -53 l-51 -35 0 45 0 44 -150 0 -150 0 0 -780 0 -780 150 0 150 0 0 261 0 261 37 -32 c69 -61 135 -84 254 -88 182 -7 295 33 405 143 112 111 164 253 164 445 0 71 -6 139 -15 175 -53 204 -191 353 -370 400 -84 21 -234 19 -312 -6z m232 -283 c51 -23 112 -82 139 -133 25 -50 38 -146 27 -211 -25 -158 -129 -253 -277 -253 -117 0 -188 35 -244 119 -42 64 -53 113 -48 217 4 72 10 100 31 141 49 96 130 142 252 143 53 1 82 -5 120 -23z"
       id="path3779" />
    <path
       d="M4980 2154 c-209 -45 -390 -217 -445 -424 -24 -90 -20 -245 10 -337 47 -149 162 -282 298 -347 105 -50 149 -60 272 -60 169 0 275 38 382 138 53 49 133 164 133 192 0 18 -254 118 -259 103 -10 -32 -96 -109 -144 -129 -72 -31 -164 -31 -235 0 -181 79 -231 348 -94 501 80 89 175 117 286 85 46 -14 70 -29 116 -74 31 -31 59 -63 62 -71 3 -10 36 0 133 39 72 29 134 56 139 61 14 12 -45 101 -115 170 -139 139 -341 196 -539 153z"
       id="path3781" />
    <path
       d="M6185 2160 c-378 -76 -581 -491 -412 -845 73 -152 203 -261 372 -311 95 -28 240 -24 340 10 192 66 340 222 390 412 19 74 19 232 0 304 -54 203 -232 377 -437 425 -67 16 -187 18 -253 5z m211 -287 c69 -23 144 -101 173 -178 45 -119 11 -279 -75 -354 -65 -57 -112 -76 -194 -76 -66 0 -82 4 -130 31 -107 60 -170 186 -157 314 21 200 202 325 383 263z"
       id="path3783" />
    <path
       d="M7508 2159 c-38 -9 -134 -56 -175 -85 -23 -16 -23 -16 -23 30 l0 46 -150 0 -150 0 0 -580 0 -580 150 0 150 0 0 293 c1 441 13 521 92 580 107 81 273 33 307 -88 7 -26 11 -172 11 -412 l0 -373 155 0 154 0 3 383 3 382 25 45 c61 108 210 139 302 62 66 -56 68 -65 68 -489 l0 -383 156 0 155 0 -4 413 c-4 439 -6 456 -57 557 -53 105 -133 167 -250 194 -165 39 -329 6 -448 -91 l-43 -35 -41 37 c-93 85 -260 125 -390 94z"
       id="path3785" />
    <path
       d="M121 1368 l0 -783 195 388 194 387 195 0 195 0 0 395 0 395 -390 0 -390 0 1 -782z"
       id="path3787" />
    <path
       d="M1030 1370 c0 -429 3 -780 8 -780 6 0 782 1542 782 1555 0 3 -178 5 -395 5 l-395 0 0 -780z"
       id="path3789" />
    <path
       d="M3334 2128 c3 -13 106 -259 229 -547 l224 -524 -75 -186 c-41 -102 -83 -207 -93 -233 l-19 -48 169 0 168 0 296 763 c163 419 299 770 303 780 6 16 -6 17 -169 17 l-176 0 -19 -52 c-10 -29 -65 -187 -122 -350 -57 -163 -106 -295 -109 -293 -3 2 -64 159 -136 349 l-130 346 -174 0 -173 0 6 -22z"
       id="path3791" />
    <path
       d="M8520 675 l0 -75 -60 0 -60 0 0 -35 0 -35 60 0 60 0 0 -149 c0 -181 0 -181 122 -181 l78 0 0 35 0 35 -65 0 -65 0 0 130 0 130 75 0 75 0 0 35 0 35 -75 0 -75 0 0 75 0 75 -35 0 -35 0 0 -75z"
       id="path3793" />
    <path
       d="M4726 595 c-98 -35 -148 -151 -115 -270 17 -61 83 -121 142 -130 63 -10 109 0 141 30 l26 24 0 -69 0 -70 -125 0 -125 0 0 -30 0 -30 148 0 c102 0 152 4 160 12 9 9 12 84 12 275 l0 263 -35 0 c-31 0 -35 -3 -35 -27 l0 -26 -22 21 c-46 42 -104 52 -172 27z m125 -70 c113 -59 76 -265 -48 -265 -76 0 -126 56 -127 140 0 104 91 168 175 125z"
       id="path3795" />
    <path
       d="M5238 601 c-109 -35 -164 -139 -138 -256 23 -104 104 -162 212 -152 113 10 178 84 178 200 0 89 -37 159 -101 192 -34 18 -117 26 -151 16z m111 -79 c82 -44 94 -172 23 -235 -31 -28 -98 -34 -138 -12 -85 46 -86 194 -1 245 40 25 73 25 116 2z"
       id="path3797" />
    <path
       d="M6673 603 c-13 -2 -36 -18 -53 -34 l-30 -31 0 31 c0 29 -3 31 -35 31 l-35 0 0 -200 0 -200 35 0 35 0 0 115 c0 129 11 168 56 204 35 28 96 24 128 -8 19 -20 21 -35 24 -166 l3 -145 35 0 34 0 0 148 c0 160 -9 197 -60 234 -26 18 -98 30 -137 21z"
       id="path3799" />
    <path
       d="M7572 599 c-54 -16 -108 -78 -122 -141 -16 -70 0 -155 38 -200 74 -87 221 -91 296 -8 50 55 49 71 -6 84 -21 5 -28 3 -28 -8 0 -8 -14 -26 -31 -40 -24 -20 -41 -26 -81 -26 -44 0 -54 4 -84 34 -21 21 -34 44 -34 60 l0 26 156 0 157 0 -7 52 c-9 63 -26 98 -66 131 -50 43 -119 56 -188 36z m151 -99 c49 -55 41 -60 -88 -60 -63 0 -115 2 -115 5 0 4 7 19 14 34 35 66 138 78 189 21z"
       id="path3801" />
    <path
       d="M8103 603 c-13 -2 -36 -18 -53 -34 l-30 -31 0 31 c0 29 -3 31 -35 31 l-35 0 0 -200 0 -200 35 0 35 0 0 108 c0 59 5 123 10 143 13 47 49 79 97 86 32 4 45 1 69 -20 l29 -25 3 -146 3 -146 35 0 34 0 0 148 c0 160 -9 197 -60 234 -26 18 -98 30 -137 21z"
       id="path3803" />
    <path
       d="M6080 565 l0 -35 60 0 60 0 0 -130 0 -130 -70 0 -70 0 0 -35 0 -35 165 0 165 0 0 35 0 35 -60 0 -60 0 0 165 0 165 -95 0 -95 0 0 -35z"
       id="path3805" />
    <path
       d="M6970 587 c0 -12 70 -221 116 -344 l16 -43 63 0 63 0 26 73 c77 215 106 302 106 314 0 8 -13 13 -38 13 l-38 0 -59 -181 -60 -180 -60 180 -60 181 -37 0 c-25 0 -38 -5 -38 -13z"
       id="path3807" />
  </g>
  <ellipse
     id="path3824"
     cx="622.06592"
     cy="149.17856"
     rx="4.9340606"
     ry="4.9642844"
     style="stroke-width:0.49245027" />
</svg>
