<svg id="AW" xmlns="http://www.w3.org/2000/svg" viewBox="0 0 890.06 219"><defs><style>.cls-1{fill:#fff;}</style></defs><title>pycom_logo_lockup_white_rgb</title><path class="cls-1" d="M479.81,193.76a12.46,12.46,0,0,0,5.06-1,12.07,12.07,0,0,0,4.09-2.88,13.49,13.49,0,0,0,2.76-4.47,15.8,15.8,0,0,0,1-5.8v-.93a15.56,15.56,0,0,0-1-5.72,13.64,13.64,0,0,0-2.76-4.48,12.61,12.61,0,0,0-4.13-2.92,12.24,12.24,0,0,0-5-1.05,12.92,12.92,0,0,0-5.09,1,12.21,12.21,0,0,0-4.13,2.88,13.51,13.51,0,0,0-2.72,4.44,15.9,15.9,0,0,0-1,5.68v1.25a16.31,16.31,0,0,0,1,5.83,13,13,0,0,0,2.72,4.4,12,12,0,0,0,4.09,2.8,13.21,13.21,0,0,0,5.13,1m12.92-1.24h-.93a12.38,12.38,0,0,1-5.1,5.25,14.5,14.5,0,0,1-7,1.76,20.2,20.2,0,0,1-7.32-1.33,18.07,18.07,0,0,1-6-3.81,17.63,17.63,0,0,1-4.12-6.19,22.09,22.09,0,0,1-1.52-8.44v-1.25a21.39,21.39,0,0,1,1.56-8.37,18.87,18.87,0,0,1,4.12-6.22,17.26,17.26,0,0,1,6-3.85,19.77,19.77,0,0,1,7.16-1.33,14.41,14.41,0,0,1,7.36,1.83,12.7,12.7,0,0,1,4.94,5.33h.93v-6.07h6.07v48.1a6,6,0,0,1-1.67,4.36,5.78,5.78,0,0,1-4.32,1.71H467.67v-5.6h23q2.1,0,2.1-2.34Z"/><path class="cls-1" d="M529.36,193.76a13.53,13.53,0,0,0,5.18-1A11.82,11.82,0,0,0,538.7,190a13.26,13.26,0,0,0,2.8-4.47,16,16,0,0,0,1-5.88v-.93a15.56,15.56,0,0,0-1-5.72,13.4,13.4,0,0,0-2.8-4.48,13,13,0,0,0-4.2-2.92,13.11,13.11,0,0,0-10.28,0,13,13,0,0,0-4.2,2.92,13.4,13.4,0,0,0-2.8,4.48,15.56,15.56,0,0,0-1,5.72v.93a16,16,0,0,0,1,5.88A13.26,13.26,0,0,0,520,190a11.77,11.77,0,0,0,4.17,2.84,13.44,13.44,0,0,0,5.17,1m19.38-14.16a21.37,21.37,0,0,1-1.59,8.52,18.81,18.81,0,0,1-4.25,6.23,17.92,17.92,0,0,1-6.18,3.85,21.26,21.26,0,0,1-14.75,0,18,18,0,0,1-6.15-3.85,18.78,18.78,0,0,1-4.24-6.23,21.19,21.19,0,0,1-1.6-8.52v-.93a21.05,21.05,0,0,1,1.6-8.45,18.87,18.87,0,0,1,4.28-6.26,18.08,18.08,0,0,1,6.19-3.89,20.78,20.78,0,0,1,14.63,0,18.14,18.14,0,0,1,6.18,3.89,19,19,0,0,1,4.29,6.26,21.22,21.22,0,0,1,1.59,8.45Z"/><path class="cls-1" d="M617.87,148.31a5.45,5.45,0,1,1,1.6,3.86,5.28,5.28,0,0,1-1.6-3.86m-11,44.52h13.54V165.44H608.22v-5.61h18.21v33H639v5.6H606.82Z"/><path class="cls-1" d="M658.72,198.43h-6.07v-38.6h6.07v6.54h.94q3.57-7.62,12.45-7.63,6.69,0,10.66,4.17t4,12.49v23h-6.07V176.64c0-4-.91-7.08-2.72-9.1a9.43,9.43,0,0,0-7.4-3,10.68,10.68,0,0,0-8.67,3.78q-3.17,3.76-3.16,10.08Z"/><polygon class="cls-1" points="722.51 198.44 710.53 198.44 697.06 159.83 704.22 159.83 716.05 195.63 716.99 195.63 728.82 159.83 735.98 159.83 722.51 198.44"/><path class="cls-1" d="M764,164.5a13.61,13.61,0,0,0-4.79.82,12.1,12.1,0,0,0-6.61,5.76,12.57,12.57,0,0,0-1.37,4.32h24.91a11.25,11.25,0,0,0-1.21-4.51,11.08,11.08,0,0,0-2.72-3.43,13,13,0,0,0-8.21-3M751.06,181a13.66,13.66,0,0,0,3.58,9.26q3.35,3.51,9.34,3.51a16,16,0,0,0,4.74-.63,10.93,10.93,0,0,0,3.47-1.71,9.15,9.15,0,0,0,2.33-2.53,14.12,14.12,0,0,0,1.44-3.07l5.76,1.55a17.08,17.08,0,0,1-6,8.76q-4.4,3.39-11.87,3.38a19.59,19.59,0,0,1-7.59-1.44,17.08,17.08,0,0,1-6-4.08,19,19,0,0,1-3.89-6.31,22.27,22.27,0,0,1-1.4-8.09v-1.87a19.67,19.67,0,0,1,1.44-7.55,17.74,17.74,0,0,1,4-6,18.83,18.83,0,0,1,6-4,19.33,19.33,0,0,1,7.51-1.44,18.1,18.1,0,0,1,8.21,1.75,18.36,18.36,0,0,1,5.68,4.32A17.89,17.89,0,0,1,782.19,176v5Z"/><path class="cls-1" d="M801.84,198.43h-6.07v-38.6h6.07v6.54h.93q3.59-7.62,12.46-7.63,6.69,0,10.66,4.17t4,12.49v23h-6.07V176.64c0-4-.91-7.08-2.73-9.1a9.42,9.42,0,0,0-7.39-3,10.68,10.68,0,0,0-8.68,3.78q-3.15,3.76-3.15,10.08Z"/><path class="cls-1" d="M840.26,159.83h12.15V144h6.07v15.87h14.94v5.61H858.48V190.5c0,1.55.7,2.33,2.1,2.33h11v5.6H858.4a5.76,5.76,0,0,1-4.32-1.71,5.94,5.94,0,0,1-1.67-4.35V165.44H840.26Z"/><polygon class="cls-1" points="12 4.91 12 159.79 50.72 82.35 89.44 82.35 89.44 4.91 12 4.91"/><polygon class="cls-1" points="181.41 4.9 103.96 4.9 103.96 159.79 181.41 4.9"/><path class="cls-1" d="M249.15,15.76q3.72-5.34,12.84-9.55A46.88,46.88,0,0,1,281.9,2q16.67,0,28.92,7.81a50.67,50.67,0,0,1,18.73,21.26A68.15,68.15,0,0,1,336,61a68.14,68.14,0,0,1-6.47,29.89,50.67,50.67,0,0,1-18.73,21.26q-12.26,7.81-28.92,7.81a45.92,45.92,0,0,1-19.71-4,33.17,33.17,0,0,1-13-10.17v54h-29V4.91h29ZM256,84.08q8,8.94,21.57,8.94,13.73,0,21.67-8.94T307.19,61q0-13.77-8.13-22.81t-21.48-9q-13.72,0-21.67,8.53T248,61q0,14.18,8,23.11"/><polygon class="cls-1" points="360.78 159.79 379.41 113.36 333.13 4.88 367.06 4.88 394.31 76.78 419.41 4.88 453.34 4.88 393.14 159.79 360.78 159.79"/><path class="cls-1" d="M481.48,112.43A59,59,0,0,1,460,91a57.54,57.54,0,0,1-7.94-29.59A57,57,0,0,1,460,31.89a59.58,59.58,0,0,1,21.38-21.37,56.73,56.73,0,0,1,29.31-7.9,57.7,57.7,0,0,1,30.89,8.52q13.81,8.53,22.06,24.35L537.18,46.38a33.63,33.63,0,0,0-11.57-12.64,28.07,28.07,0,0,0-14.91-4.21,27.46,27.46,0,0,0-21.08,9q-8.34,9-8.33,22.8t8.43,22.81a27.73,27.73,0,0,0,21.18,9q17.64,0,27.26-16.43l24.9,10.27q-15.49,33.28-52.16,33.28a57.31,57.31,0,0,1-29.42-7.91"/><path class="cls-1" d="M600.83,112.23a58.95,58.95,0,0,1-29.12-51.06,57.68,57.68,0,0,1,7.84-29.38,58.51,58.51,0,0,1,21.28-21.47,58.46,58.46,0,0,1,58.73,0A59,59,0,0,1,681,31.79,57.09,57.09,0,0,1,689,61.17,57.5,57.5,0,0,1,681,90.76a59,59,0,0,1-21.47,21.47,58.46,58.46,0,0,1-58.73,0m14.41-78.69A29.7,29.7,0,0,0,604.46,45a33.47,33.47,0,0,0-3.92,16.13,35.08,35.08,0,0,0,3.82,16.54A29.34,29.34,0,0,0,615,89.22a28.22,28.22,0,0,0,15.2,4.21,27.88,27.88,0,0,0,15-4.21,29.9,29.9,0,0,0,10.69-11.61,34.62,34.62,0,0,0,3.92-16.44A33.59,33.59,0,0,0,655.84,45a30.08,30.08,0,0,0-10.69-11.5,28.61,28.61,0,0,0-29.91,0"/><path class="cls-1" d="M862.34,15.15q11.07,12.73,11.08,35.54v68.54H843.81V50.69q0-12.12-5.78-17.46t-15.2-5.35q-7.85,0-14.12,6.17t-6.47,20.54v64.64H772.63V50.69q0-12.12-5.79-17.46t-15-5.35a19.42,19.42,0,0,0-14.61,6.58q-6.18,6.59-6.18,23.22l-.19,61.55H701.64V4.9h29.22v9.84A47.35,47.35,0,0,1,744.59,5.9a37.41,37.41,0,0,1,14.7-3.49Q782,2.41,794,17.82a42.42,42.42,0,0,1,15.1-11.3,46.72,46.72,0,0,1,19.61-4.11q22.54,0,33.63,12.74"/></svg>